<svg xmlns:dc="http://purl.org/dc/elements/1.1/" xmlns:cc="http://creativecommons.org/ns#" xmlns:rdf="http://www.w3.org/1999/02/22-rdf-syntax-ns#" xmlns:svg="http://www.w3.org/2000/svg" xmlns="http://www.w3.org/2000/svg" viewBox="0 0 440 440" fill="none" width="60" height="60"><metadata><rdf:RDF><cc:Work><dc:format>image/svg+xml</dc:format><dc:type rdf:resource="http://purl.org/dc/dcmitype/StillImage"/><dc:title>Face Generator</dc:title><dc:creator><cc:Agent><dc:title>The Visual Team</dc:title></cc:Agent></dc:creator><dc:source>https://www.figma.com/community/file/986078800058673824</dc:source><cc:license rdf:resource="https://creativecommons.org/licenses/by/4.0/"/></cc:Work><cc:License rdf:about="https://creativecommons.org/licenses/by/4.0/"><cc:permits rdf:resource="https://creativecommons.org/ns#Reproduction"/><cc:permits rdf:resource="https://creativecommons.org/ns#Distribution"/><cc:permits rdf:resource="https://creativecommons.org/ns#DerivativeWorks"/><cc:requires rdf:resource="https://creativecommons.org/ns#Notice"/><cc:requires rdf:resource="https://creativecommons.org/ns#Attribution"/></cc:License></rdf:RDF></metadata><mask id="avatarsRadiusMask"><rect width="440" height="440" rx="0" ry="0" x="0" y="0" fill="#fff"/></mask><g mask="url(#avatarsRadiusMask)"><g transform="matrix(.71048 0 0 .71048 24 2)"><path d="M476.391 267.699c-14.423-21.272 9.143-32.589 0-76.199S429.49 168.298 411 147.89c-18.49-20.408-18.772-38.55-47.751-47.001-50.793-14.81-83.001 24.501-127.501.001s-95.072 12.809-102.999 47c-5.561 23.986-9.574 43.309-43.573 68.809-39.598 29.698-37.5 91.5-9.5 125.5s19.5 49 18.5 81 29.5 65 75 53.5 46.52 26.379 96.572 39.691c53.928 14.342 41.001-21.5 93.501-22.5 52.5-1 63.499-31 72.999-60.5 9.5-29.5 4-39 31-69s35.928-57.191 9.143-96.691Z" fill="rgba(165, 87, 40, 1)"/></g><g transform="translate(81.702 150.74) scale(.71856)"><path d="M310 123.121H72.79v166.34h.015c-.01.297-.014.595-.014.894 0 31.116 53.101 80.645 118.604 80.645C256.899 371 310 321.471 310 290.355c0-.299-.005-.597-.015-.894H310v-166.34Z" fill="rgba(137, 83, 44, 1)"/><g fill="#000" fill-opacity=".19"><path d="M72.79 269.891v.8c.002-.267.007-.534.015-.8h-.014ZM72.79 270.88v18.581h.015c-.01.297-.014.596-.014.895 0 31.116 53.101 80.644 118.604 80.644C256.899 371 310 321.472 310 290.356c0-.299-.005-.598-.015-.895H310v-19.57h-.015c.01.298.015.596.015.894 0 31.116-53.101 80.645-118.605 80.645-65.437 0-118.497-49.428-118.604-80.55Z"/></g><ellipse cx="190.5" cy="129" rx="119.5" ry="105" fill="rgba(137, 83, 44, 1)"/></g><g transform="translate(199.546 333.373) scale(.71856)"><path d="M82.727 33.416c0 16.879-24.274 4.075-54.218 4.075-29.944 0-54.219 12.804-54.219-4.075 0-16.88 24.275-30.563 54.219-30.563 29.944 0 54.218 13.684 54.218 30.563Z" fill="#DE8383"/></g><g transform="translate(280.744 235.363) scale(.71856)"><path d="M70.891 16C44.427 16 33.271 36.884 31 47.326V109c24.324-3.263 67.658-24.474 73.945-45.032C111.232 43.41 103.972 16 70.891 16Z" fill="rgba(137, 83, 44, 1)"/><path d="M69.329 27.747c-18.973 0-26.972 14.95-28.6 22.423v44.146c17.44-2.336 48.506-17.518 53.013-32.233 4.507-14.715-.697-34.336-24.413-34.336Z" fill="#000" fill-opacity=".19"/><path d="M52.405 62.688c0-11.265-7.783-14.935-11.675-15.361V80.61c3.892-1.28 11.675-6.657 11.675-17.923Z" fill="rgba(137, 83, 44, 1)"/></g><g transform="matrix(-.71856 0 0 .71856 161.463 235.363)"><path d="M70.891 16C44.427 16 33.271 36.884 31 47.326V109c24.324-3.263 67.658-24.474 73.945-45.032C111.232 43.41 103.972 16 70.891 16Z" fill="rgba(137, 83, 44, 1)"/><path d="M69.329 27.747c-18.973 0-26.972 14.95-28.6 22.423v44.146c17.44-2.336 48.506-17.518 53.013-32.233 4.507-14.715-.697-34.336-24.413-34.336Z" fill="#000" fill-opacity=".19"/><path d="M52.405 62.688c0-11.265-7.783-14.935-11.675-15.361V80.61c3.892-1.28 11.675-6.657 11.675-17.923Z" fill="rgba(137, 83, 44, 1)"/></g><g transform="translate(114.756 215.513) scale(.71856)"><path d="M76 52.422C79.57 49.615 85.063 44 95.774 44c9.1 0 16.752 6.176 18.125 8.422M180 52.422c3.57-2.807 9.063-8.422 19.774-8.422 9.1 0 16.752 6.176 18.125 8.422" stroke="#000" stroke-width="3.676" stroke-linecap="round"/><rect x="71" y="61.477" width="49.614" height="60.639" rx="14.438" fill="#fff"/><rect x="172.983" y="61.477" width="49.614" height="60.639" rx="14.438" fill="#fff"/><rect x="82.025" y="69.746" width="30.32" height="46.858" rx="9.625" fill="#757575"/><rect x="181.253" y="69.746" width="30.32" height="46.858" rx="9.625" fill="#757575"/></g><g transform="translate(127.69 288.703) scale(.71856)"/><g transform="translate(193.079 279.362) scale(.71856)"><path d="M5.59 34.439A16.902 16.902 0 0 0 5 38.882c0 9.323 7.558 16.882 16.882 16.882h33.763c9.324 0 16.882-7.559 16.882-16.882 0-1.538-.205-3.027-.59-4.443-1.95 7.168-8.506 12.44-16.292 12.44H21.882c-7.786 0-14.341-5.272-16.291-12.44Z" fill="#000" fill-opacity=".19"/></g><g transform="matrix(.52237 0 0 .52237 122.898 244.766)"><path d="M52 8H11v96h41V8Z" fill="rgba(165, 87, 40, 1)"/></g><g transform="matrix(-.52237 0 0 .52237 315.651 244.766)"><path d="M52 8H11v96h41V8Z" fill="rgba(165, 87, 40, 1)"/></g><g transform="matrix(.52237 0 0 .52237 108.706 145.555)"><path d="M374 133c6.548 15.852 11.5 34.5 11.5 70-11 0-38.5 11-92.5-18-54.844-29.453-68.893-59.5-82-79-13 27-37 51.339-72.5 73.5S54.167 200.5 38 203c0-23.113 2.04-45.999 10.86-67.352a176.028 176.028 0 0 1 38.043-57.099 175.458 175.458 0 0 1 56.936-38.152A175.07 175.07 0 0 1 211 27a175.07 175.07 0 0 1 67.161 13.397 175.455 175.455 0 0 1 56.936 38.152C351.394 94.892 365.18 111.647 374 133Z" fill="rgba(165, 87, 40, 1)"/></g></g></svg>