<svg xmlns:dc="http://purl.org/dc/elements/1.1/" xmlns:cc="http://creativecommons.org/ns#" xmlns:rdf="http://www.w3.org/1999/02/22-rdf-syntax-ns#" xmlns:svg="http://www.w3.org/2000/svg" xmlns="http://www.w3.org/2000/svg" viewBox="0 0 704 704" fill="none"><metadata><rdf:RDF><cc:Work><dc:format>image/svg+xml</dc:format><dc:type rdf:resource="http://purl.org/dc/dcmitype/StillImage"/><dc:title>Open Peeps</dc:title><dc:creator><cc:Agent><dc:title>Pablo Stanley</dc:title></cc:Agent></dc:creator><dc:source>https://www.openpeeps.com/</dc:source><cc:license rdf:resource="https://creativecommons.org/publicdomain/zero/1.0/"/></cc:Work><cc:License rdf:about="https://creativecommons.org/publicdomain/zero/1.0/"><cc:permits rdf:resource="https://creativecommons.org/ns#Reproduction"/><cc:permits rdf:resource="https://creativecommons.org/ns#Distribution"/><cc:permits rdf:resource="https://creativecommons.org/ns#DerivativeWorks"/></cc:License></rdf:RDF></metadata><mask id="avatarsRadiusMask"><rect width="704" height="704" rx="0" ry="0" x="0" y="0" fill="#fff"/></mask><g mask="url(#avatarsRadiusMask)"><g fill-rule="evenodd" clip-rule="evenodd"><path d="M705.281 1074.02a2351.117 2351.117 0 0 1-11.084-68.46c-1.594-10.86-3.149-21.73-4.547-32.618-.979-7.628-2.47-16.351 2.72-22 7.303-7.952 13.937-14.758 14.831-26.149.841-10.717-2.783-22.4-5.049-32.803-4.752-21.816-10.668-43.362-17.205-64.704-6.641-21.683-13.923-43.162-21.31-64.6-6.906-20.044-13.545-40.269-22.54-59.5-17.071-36.495-45.951-63.522-81.643-81.568-8.877-4.488-26.983-20.51-36.257-24.097-8.526-3.298-8.495 6.333-16.886 2.705-6.708-2.9-12.954-6.767-16.71-13.244-4.078-7.033-14.305-16.869-15.862-25.055-3.299-17.351.275-32.12-12.109-45.179-10.994-11.597-25.771-19.542-41.061-23.807-33.636-9.381-78.494-2.822-98.788 28.433-9.693 14.926-13.08 32.968-26.159 45.149-11.421 10.636-8.865 17.908-23.657 23.39-.838.311-23.546-4.56-24.384-4.248-16.182-3.463-31.648 6.23-46.494 11.856-22.133 8.384-43.205 19.298-63.002 32.269-39.92 26.155-74.11 60.118-102.296 98.551-28.42 38.75-50.471 82.182-66.172 127.576a492.842 492.842 0 0 0-10.26 33.455c-1.69 6.307-3.497 12.849-1.438 19.305 1.684 5.283 5.43 9.216 9.829 12.385 5.963 4.297 17.924 7.09 17.69 15.732-.177 6.57-2.406 13.485-3.494 19.978-1.295 7.732-2.36 15.51-3.423 23.276-4.84 35.352-8.607 70.902-10.273 106.552-1.64 35.1-3.001 70.92-.566 106.01.16 2.31.85 4.44 1.964 6.23-1.04.4-1.12 2.34.174 2.61.906.19 1.81.39 2.716.58 1.882 1.42 4.229 2.29 6.93 2.38 1.83.06 3.66.14 5.49.23 19.3 4.04 38.599 7.85 58.152 10.74 23.768 3.5 47.606 6.36 71.518 8.69 49.135 4.78 97.883 3.19 147.083.62 49.124-2.58 98.219-3.18 147.394-1.9 49.218 1.28 98.418 3.42 147.647 4.3 54.999.98 109.914-.52 164.754-4.9 7.519-.59 12.171-6.58 10.688-14.04-8.885-44.75-18.954-89.19-26.911-134.13Z" fill="rgba(208, 139, 91, 1)"/><path d="m201.087 597.521 1.074-.414c14.518-5.671 29.628-14.822 45.421-11.442.558-.208 10.834 1.887 17.872 3.215l-6.68 6.973-11.79 2.268c40.673 67.128 88.778 100.692 144.314 100.692 55.537 0 97.678-33.564 126.425-100.692l3.923-1.085c.484.112 1 .271 1.552.485 9.274 3.587 27.379 19.608 36.256 24.096 35.692 18.047 64.572 45.073 81.643 81.569 8.695 18.59 15.189 38.108 21.85 57.494l.69 2.005c7.387 21.438 14.669 42.918 21.31 64.601 6.253 20.414 11.938 41.015 16.579 61.86l.626 2.844c2.266 10.403 5.89 22.085 5.049 32.803-.318 4.058-1.365 7.534-2.912 10.687l-80.446 28.947 38.326 261.393c-35.107 1.51-70.246 1.9-105.419 1.27-49.229-.88-98.429-3.02-147.647-4.3-47.685-1.24-95.294-.71-142.928 1.67l-12.097.62c-46.613 2.33-92.858 3.52-139.452-1.01l-3.175-.31v-38.24l16.367-212.911-82.945-15.613-81.422-39.546c-2.46-2.459-4.434-5.329-5.532-8.773-1.907-5.98-.498-12.033 1.064-17.905l.375-1.4a492.842 492.842 0 0 1 10.26-33.455c15.7-45.394 37.751-88.827 66.171-127.576 28.187-38.433 62.377-72.396 102.296-98.552 19.797-12.97 40.869-23.884 63.002-32.268Z" fill="rgba(157, 218, 219, 1)"/><path d="M232.235 584.564c5.086-.221 10.272.602 15.346 1.101.442.043.61.725.112.829-9.08 1.897-18.062 4.492-26.98 7.128l-3.819 1.13c-10.057 2.975-19.819 6.044-29.555 10.012-19.404 7.908-37.833 18.582-54.794 30.845C67.233 682.83 19.963 754.324-9.867 828.345a525.982 525.982 0 0 0-20.525 61.653 554.65 554.65 0 0 0-3.83 15.347c-.354 1.505-1.897 5.359-1.05 6.899.747 1.361 3.655 2.202 5.006 2.91l4.561 2.365c8.897 4.585 23.717 12.123 25.203 12.857l2.318 1.141c37.91 18.585 78.418 34.345 121.079 35.436l.334-3.643c1.902-20.141 4.398-40.389 9.846-59.911.293-1.049 1.628-.695 1.75.237 3.035 23.111 2.065 46.402 1.006 69.62-1.875 41.124-4.365 82.224-6.578 123.324-1.108 20.57-2.54 41.11-3.833 61.67-1.295 20.59-1.714 41.68-4.671 62.1-.659 4.55-5.991 7.03-10.029 6.55-4.468-.53-7.905-4.47-7.926-8.98-.054-11.9 1.441-23.94 2.272-35.8.789-11.28 1.636-22.55 2.504-33.82 3.172-41.13 6.821-82.21 10.196-123.33 1.196-14.58 2.488-29.147 3.818-43.715-45.193-1.457-87.414-18.196-127.692-37.754-.583 13.237-1.99 26.45-3.354 39.632-3.805 36.787-7.16 73.557-9.67 110.457-1.269 18.64-2.192 37.3-2.996 55.96a1708.912 1708.912 0 0 0-1.187 36.7l-.137 7.01c-.113 4.44-.564 8.55-4.3 11.78-3.796 3.29-8.922 3.46-12.678 0-5.028-4.63-4.139-10.93-3.99-17.15a1718.048 1718.048 0 0 1 1.775-47.18c1.886-36.64 5.655-73.13 10.58-109.47l1.922-14.03c3.59-26.08 7.532-52.754 15.558-77.877a1428.758 1428.758 0 0 1-9.345-4.691c-5.506-2.788-11.199-5.404-16.55-8.481-4.247-2.441-7.909-5.789-9.09-10.73-1.319-5.505.697-11.526 2.036-16.896l.116-.472a502.049 502.049 0 0 1 4.22-16.153c6.05-21.739 13.53-43.054 22.285-63.849 17.53-41.632 40.157-81.183 67.796-116.944 24.88-32.19 54.269-61.382 88.715-83.276 16.84-10.704 34.786-19.493 53.765-25.707 8.871-2.904 18.523-5.43 27.811-6.47 5.01-.56 10.027-.881 15.061-1.1Zm90.114-65.97c6.044-6.49 18.052.226 15.15 8.82-6.826 20.219-17.696 38.662-34.66 51.948-15.946 12.49-34.961 20.601-55.439 18.87a1.217 1.217 0 0 1-.416-.111l1.765 2.394c13.854 18.741 28.47 37.223 46.087 52.541 35.893 31.211 84.763 48.045 131.953 36.07 37.128-9.421 69.838-38.78 79.458-76.196-1.379.618-3.018.829-4.817.438-7.697-1.671-15.317-9.766-20.281-15.57-5.37-6.279-9.564-13.059-12.638-20.723-5.626-14.026-7.43-32.085.252-45.672.948-1.675 3.134-.736 3.32.899l.292 2.552c1.481 12.734 3.326 25.051 9.33 36.659 2.938 5.68 6.46 11.224 10.747 15.981 2.294 2.545 4.781 4.977 7.466 7.111 2.616 2.079 5.783 3.583 8.128 5.968l.43.458.012-.082c.593-5.041 4.128-7.262 7.587-7.123 3.347.135 7.279 1.608 8.802 2.314l.144.068c23.352 11.21 44.859 25.821 65.099 42.031 41.856 33.524 73.217 77.349 88.412 128.957 7.458 25.329 11.737 51.428 16.254 77.405l2.782 15.917c4.216 23.981 8.926 48.435 18.444 70.743 2.462 5.771.564 11.183-5.473 13.452-7.538 2.834-15.104 5.578-22.682 8.288 3.721 15.963 5.99 32.479 8.778 48.519 5.926 34.1 13.187 67.98 19.413 102.04 3.183 17.41 6.055 34.88 9.235 52.29 1.531 8.39 3.129 16.76 4.683 25.14.837 4.52 1.596 9.06 2.395 13.58l.139.76c.458 2.38 1.033 4.85.376 7.24-.749 2.73-2.876 4.65-4.775 6.61-1.563 1.61-3.822 1.62-5.737.74l-.63-.29c-3.42-1.6-6.1-3.2-7.313-7.06-.768-2.44-1.045-5.19-1.547-7.71-.963-4.82-1.876-9.66-2.738-14.5a3535.65 3535.65 0 0 1-5.052-29.1l-1.536-9.09c-5.27-31.33-10.275-62.85-12.805-94.51-1.123-14.05-2.312-28.08-3.513-42.12l-.901-10.524c-1.14-13.325-2.533-26.987-2.73-40.492l-4.532 1.609-22.11 7.816c-5.482 1.937-12.462 5.907-18.362 5.185-2.888-.354-5.09-1.263-6.79-2.915 2.036 28.733 4.792 57.421 8.465 85.951 3.342 25.97 7.047 51.9 11.423 77.71 2.167 12.78 4.394 25.55 6.813 38.29 1.209 6.37 2.457 12.73 3.743 19.08.641 3.17 1.404 6.35 1.904 9.54.572 3.66-.436 5.91-2.481 8.93-1.679 2.47-5.038 3.74-7.761 2.03-3.606-2.26-5.487-4.22-6.548-8.34-.964-3.75-1.55-7.65-2.296-11.44-1.377-7-2.708-14.01-3.993-21.02-2.687-14.68-5.164-29.38-7.376-44.14-7.795-51.97-12.741-104.37-15.239-156.859-1.233-25.897-1.614-51.817-1.395-77.741.112-13.288.546-26.614 1.486-39.869.952-13.417 2.932-26.566 4.7-39.854.062-.468.722-.495.75 0 .837 14.898 2.149 29.779 2.792 44.716.614 14.253.883 28.528 1.371 42.786.641 18.742 1.53 37.495 2.707 56.235 2.131-2.331 5.343-3.675 8.557-3.15 4.656-.977 9.668-3.42 14.107-4.903l16.734-5.59c8.797-2.938 17.594-5.856 26.422-8.686-7.893-26.553-13.3-53.502-17.917-80.844l-2.059-12.297c-4.075-24.204-8.47-48.419-15.852-71.858-7.761-24.642-19.375-47.552-34.782-68.299-15.187-20.447-33.664-38.451-52.688-55.291-16.287-14.416-33.71-27.432-50.322-41.452.174.929.211 1.952.058 3.076-3.532 25.85-17.017 49.923-35.81 67.828-37.755 35.971-93.642 43.434-141.964 26.566-46.743-16.316-88.07-54.958-102.671-102.775-.25-.818.846-1.143 1.286-.542.81 1.11 1.624 2.22 2.439 3.33-.055-.441.174-.921.718-1.131 17.036-6.578 33.765-15.907 46.535-29.104 6.224-6.433 11.656-13.721 15.944-21.581 2.054-3.765 3.899-7.664 5.371-11.693l.374-1.042c1.784-5.047 3.275-10.193 6.999-14.192Z" fill="#000"/></g><g transform="matrix(.99789 0 0 1 156 62)"><g fill-rule="evenodd" clip-rule="evenodd"><path d="m154.012 59.337 8.637 10.271a275.317 275.317 0 0 0-13.544 10.16l-.003-.01c19.67-12.835 41.456-20.421 64.99-20.421 45.329 0 137.401 38.937 158.214 67.022 10.329 13.938 29.524 56.725 39.48 103.243 8 37.376 19.899 142.97 8 182.648-15.228 50.78-65.329 97.714-116.989 97.714-51.66 0-131.864-37.296-188.947-119.028-2.61-3.737-32.584-8.069-53.966-22.097l5.614 61.848 4.267 35.978-.942 2.56c-15.314 41.417-27.45 63.024-36.407 64.822-9.14 1.835-27.753-13.147-55.84-44.946l-3.588-15.064c-9.116-38.425-13.673-59.051-13.673-61.877l.006-.515c.134-6.503 2.375-43.312 2.42-53.217l.001-148.464C-8.052 109.546 20.774 59.337 48.218 59.337h105.794Z" fill="rgba(208, 139, 91, 1)"/><path d="M82.439 25.138c8.881-3.44 19.17-2.79 27.6 2.39 16.551-.71 33.011 8.97 41.64 23.1.18.2.371.4.541.6l1.829 2.132c1.732 2.035 3.558 4.279 5.005 6.595-7.088.162-12.993 3.051-17.115 8.886-2.941 4.164 3.796 8.12 6.802 4.182l.106-.144c2.475-3.503 6.211-4.86 10.37-4.93 1.194-.02 2.1-.478 2.74-1.152.255.93.483 1.868.692 2.811 20.942-8.145 43.518-10.302 66.003-8.37a26.47 26.47 0 0 0-2.444 5.103c-.719 2.037.815 4.376 2.794 4.92 2.14.588 4.074-.666 4.849-2.604l.071-.19c.864-2.448 2.275-4.549 4.169-6.178 10.585 1.435 21.095 3.717 31.348 6.66 12.323 3.538 24.53 7.857 36.468 12.802-2.022.793-3.769 2.133-4.992 4.37-2.442 4.466 4.271 8.465 6.818 4.196l.09-.158c.25-.457.471-.733.633-.89l.058-.053.352-.162.656-.188.252-.061c.222-.05.314-.047.899-.08.778-.044 1.557-.04 2.336-.04 1.832-.002 3.001-1.023 3.53-2.329a384.59 384.59 0 0 1 17.42 8.392l1.358.703c17.634 9.214 34.34 21.314 44.032 39.117.641 1.19.84 2.49.681 3.73 2.069 2.48 4.069 5.04 5.989 7.64 5.86 7.96 10.15 17.01 14.21 25.98 8.17 18.04 13.67 36.57 17.96 55.89 4.151 18.62 7.5 37.44 10.611 56.26 3.449 20.91 6.319 42 6.92 63.21 1.06 37.81-6.331 75.84-27.561 107.67-18.939 28.4-47.459 50.95-81.28 58.17-34.4 7.34-70.8.18-97.909-22.74-4.371-3.69-3.77-11.14 0-14.92 4.27-4.26 10.569-3.67 14.919 0 25.53 21.59 62.69 24.92 93.451 13.92 28.44-10.18 50.719-33.66 64.389-60.03 16.68-32.16 19.491-69.1 16.93-104.68-1.399-19.54-4.31-38.92-7.31-58.27l-1.811-11.647c-1.975-12.616-4.051-25.215-6.758-37.703l-.634-2.909c-3.308-15.059-7.184-30.504-13.176-44.661-3.141-7.43-6.92-14.59-10.79-21.66a370.06 370.06 0 0 0-2.311-4.16c-1.06.37-2.27.43-3.54.03-10.93-3.4-22.16-5.68-33.589-6.44a147.941 147.941 0 0 0-15.631-.199c-8.917-.519-18.083.265-26.577 2.999a187.082 187.082 0 0 0-2.516-2.109 5.916 5.916 0 0 1-.682-.087c-2.167-.426-3.691-1.966-4.609-3.911a5.847 5.847 0 0 1-.132-.309 183.561 183.561 0 0 0-3.289-2.456c-2.696.699-5.058-1.544-5.694-4.002-.6-.405-1.21-.797-1.816-1.194a8.71 8.71 0 0 1-1.407.246c-1.985.143-3.902-.161-5.661-1.108-2.227-1.199-3.65-3.133-4.602-5.33-3.368.207-6.776-.886-9.787-2.862-2.444-1.603-4.316-3.816-6.177-6.025-22.678-10.115-47.33-16.087-72.04-17.617a98.958 98.958 0 0 0-7.238 1.673c-.565.154-1.367.456-2.29.818 5.509-.666 11.089-.732 16.748.083 26.854 3.883 47.769 23.989 65.77 42.968 4.282-.865 8.61 4.68 4.647 8.352l-30.897 28.631c.758 3.202-2.914 6.358-6.131 5.589a1579.205 1579.205 0 0 0-16.204-3.795c-5.64 2.729-12.731 2.262-17.847-1.694-.238-.184-.755-.478-1.204-.77-.42.347-.985.695-1.21.843-1.819 1.204-4.035 1.558-6.16 1.22-2.186-.347-4.159-1.456-5.86-2.837-1.083-.879-3.606-4.55-5.01-4.82l-.137-.016c.937.027-2.075 2.826-2.884 3.405-1.888 1.347-3.975 2.055-6.324 1.797-4.094-.45-7.614-4.181-9.616-7.626l-.151-.265-.063-.164-.053.178c-.01.031-.021.065-.035.102-.3.811-1.242 1.733-1.882 2.3-1.824 1.613-4.082 2.322-6.494 1.901-2.042-.355-3.758-1.588-5.138-3.081l-.215-.238c-.408-.46-3.098-4.074-2.673-4.94l.049-.073-.134-.028c-1.636.402-3.009-.001-4.015-.844-5.614-1.23-11.155-2.663-16.519-4.485-.42 1.18-.831 2.36-1.23 3.55 2.929 1.81 5.639 4.39 8.129 6.23 4.721 3.48 9.44 6.96 14.15 10.45l18.662 13.766 2.134-.573c2.727-.732 5.067.856 6.068 3.282l.082.21a18.205 18.205 0 0 0 1.437 2.987c4.665-.186 8.615 2.678 9.892 6.786a26.467 26.467 0 0 1 3.506.149c3.259.358 5.456 2.778 4.866 6.101l-.045.228-.079.37c1.889.802 3.259 2.351 3.563 4.693a8.883 8.883 0 0 1 1.175 2.511c1.363 4.785-1.289 10.698-2.701 15.281l-.109.359a660.766 660.766 0 0 1-2.794 9.006l-2.365 7.439c-6.556 20.732-12.948 42.591-7.642 64.325 1.131 4.6-4.75 6.68-7.3 3.08-6.182-8.716-12.861-16.929-19.874-24.813l-.34-.054c-4.911-.987-6.818-4.456-9.072-7.992a8.802 8.802 0 0 1-4.136.217c-1.998-.385-3.788-1.526-5.201-2.967-1.197-1.222-2.294-4.356-3.709-5.133-1.77-.971-5.328.417-7.442.105-1.719-.253-3.324-.843-4.881-1.584-2.862 3.901-4.759 8.487-5.224 13.431-.181 1.88-.741 3.47-1.551 4.79 2.98-.11 5.97.1 8.921.65 10.92 2.03 18.75 8.77 23.15 18.81.189.44-.381.8-.641.38-6.529-10.05-20.74-10.56-31.06-7.02-10.96 3.76-17.11 13.41-19.299 24.42-2.4 12.07.679 25.08 7.25 35.36 3.049 4.78 7.21 9.14 12.739 10.9 6.571 2.09 12.64-1.65 19.37.28 4.58 1.31 6.601 5.74 5.77 10.17-.33 1.74-.94 3.26-1.76 4.58 2.421 4.8 4.66 9.74 7.51 14.28 4.4 7.01 9.721 12.81 15.52 18.66 5.99 6.04 12.09 11.96 18.5 17.56 6.141 5.37 13.181 9.19 19.621 14.11 4.52 3.45 6.759 8.29 4.529 13.83-1.839 4.58-8.04 8.48-13.06 6.41-9.61-3.96-18.02-10.7-25.679-17.64-7.1-6.44-13.281-14.14-17.951-22.5-4.405-7.881-7.651-16.832-10.39-25.454l-.34-1.076c-1.29-4.1-2.649-8.71-3.529-13.36-5.27 2.88-12.421 3.3-18.06 2.52-9.111-1.25-17.421-5.84-23.701-12.53-2.927-3.113-5.514-6.664-7.748-10.513.203 2.343.324 4.61.454 6.673 5.221 5.718 7.315 13.97 5.462 21.499 4.368 4.496 5.592 11.245 3.312 16.991 4.781 4.742 4.601 12.288 2.534 19.141 5.652 6.317 6.187 16.158 1.774 23.286l-.133.512c4.456 7.456 3.451 17.092-2.132 23.676 3.813 7.396 3.223 17.344-6.306 20.214-3.473 1.045-6.839.153-9.358-1.793 2.3 11.439 3.329 23.052.262 34.544-1.221 4.56-5.681 7.89-10.371 7.89-3.92 0-6.77-1.97-8.739-4.87.23 5.77-.12 11.57-1.35 17.42-.742 3.533-4.019 6.288-7.498 7.141 1.255 1.415 1.755 3.462.552 5.593-5.101 9.03-17.426 5.285-18.259-3.366-3.481-2.598-5.099-6.864-5.769-11.473-.976-6.722-1.33-13.333-2.436-19.969l-.423.396-.218.188-.07.48c-.634 3.28-2.484 5.577-4.885 6.947.522 5.722-.444 11.549-4.074 15.894-2.418 2.896-6.537 4.036-10.068 3.408-.222.011-.449.01-.685-.021-7.997-1.063-12.624-8.648-10.519-15.61-3.22-3.946-4.576-8.953-3.623-13.901-6.231-4.126-6.104-13.188-3.946-20.467-6.532-5.155-8.989-14.792-5.707-22.451-5.887-7.311-6.706-17.499-2.706-25.824-6.477-5.321-6.44-15.594-.016-21.036-3.421-6.791-5.484-14.928-2.065-21.143-2.412-2.662-3.736-6.456-3.457-10.122.409-5.384 3.971-9.104 8.391-11.583l.306-1.684c1.038.129 2.144-.161 3.119-1.097a16.625 16.625 0 0 1 2.985-2.29 3.859 3.859 0 0 0 2.868-1.33c1.926-.654 3.997-.943 6.294-.969 4.961-.054 5.136-7.473.519-7.954a3.986 3.986 0 0 0-2.822-1.198l-.853.004c-1.993.019-4.006.142-5.856.934a6.577 6.577 0 0 0-2.808 2.237c-.127 1.434-.907 2.864-2.596 4.045-1.951 1.364-4.619 1.523-6.707.289-2.923-1.728-2.953-4.425-2.616-7.357.738-6.414-2.95-12.45-2.072-19.012.389-2.901 1.355-5.406 2.93-7.429-3.321-4.971-3.907-11.388-1.35-16.845-5.327-5.731-6.248-14.565-2.851-21.462.049-.167.087-.338.14-.503.384-1.172.913-2.229 1.496-3.24a16.494 16.494 0 0 1 .071-16.649c-4.591-5.352-4.737-13.869-.654-19.635.024-.478.074-.956.115-1.434-1.874-4.865-1.424-10.396.953-14.92a29.312 29.312 0 0 1-1.92-6.302c-1.071-5.78-.52-11.4 1.08-17.04.259-.89.549-1.78.859-2.67.052-3.863.199-7.709.393-11.548-.76-3.249-.883-6.821-.9-10.136l-.005-2.15c-.037-5.471-.418-13.482 3.041-18.133-2.221-5.024-1.308-11.354 2.399-15.336-2.602-4.475-3.148-9.97-.533-14.935.42-.799.907-1.543 1.441-2.247-.216-4.547.741-9.236 3.164-13.755 1.574-2.942 3.925-5.489 6.72-7.527a19.076 19.076 0 0 1-.066-1.798c.049-2.646.636-5.303 1.624-7.782-1.773-3.026-2.595-6.437-1.558-10.113 1.16-4.16 4.211-7.74 8.02-9.76.307-3.922.92-7.821 1.796-11.668-2.341-5.213-.477-12.093 4.814-15.164-.69-4.166-.068-8.486 2.964-11.74a11.646 11.646 0 0 1 3.96-2.788c-.702-4.189.09-8.547 2.987-11.958 2.366-2.785 5.872-4.477 9.44-4.726 1.374-7.286 8.335-12.734 15.679-12.3.918-3.208 3.111-6.005 6.513-7.423a11.164 11.164 0 0 1 2.628-.735c5.972-6.024 14.863-10.107 22.56-12.198 7.72-2.089 15.547-2.29 22.176.138l.483.182.54-.07c2.341-.26 4.68-.41 7.02-.47Zm-58.67 493.736c-2.062-.643-4.362.761-4.921 2.793-.59 2.148.724 4.276 2.794 4.921 2.579.804 5.288 1.005 7.976 1.007 2.161.002 4-1.84 4-4 0-2.171-1.831-3.998-4-4-2.186-.002-3.8-.082-5.849-.721ZM5.426 476.395c-3.083.003-5.727.739-8.013 2.899-1.524 1.441-1.562 4.224 0 5.658 1.578 1.448 3.867 1.532 5.486.154l.312-.28c.038-.034.067-.061.09-.084.13-.084.261-.17.399-.242l-.26.171c-.2.143.261-.091.52-.201l.081-.034.026-.006.207-.016c.383-.02.768-.019 1.152-.019 2.092-.002 4.096-1.838 4-4-.098-2.166-1.758-4.002-4-4Zm58.178-25.378c4.33-2.655.462-9.445-3.88-7l-.157.092c-2.226 1.366-4.964 1.181-7.486 1.182-5.147.003-5.156 8.003 0 8l.852-.003c3.697-.028 7.437-.286 10.671-2.271Zm-34.075-29.199c-3.271-.615-6.936-1.165-10.378-.79l-.571.071h-1.059c-.92 0-1.811.37-2.526.952-1.132.47-2.204 1.1-3.182 1.947-3.897 3.379 1.782 9.017 5.657 5.658.215-.187.465-.341.743-.467l.213-.09h4.279c.389 0 .768-.081 1.137-.198 1.389.191 2.683.466 3.56.631 5.032.947 7.188-6.762 2.127-7.714Zm-3.653-76.78c-6.27-2.908-13.214-2.887-19.013 1.151-4.147 2.888-.295 9.698 3.888 7.009l.149-.101c.52-.362 1.054-.665 1.594-.94 2.944.851 5.907.891 8.753-.155l.371-.143.221.086c4.64 2.152 8.708-4.741 4.037-6.907Zm68.277-12.534c-6.334-.71-6.385-10.716 0-10 13.481 1.512 25.713 7.505 34.672 17.797 4.167 4.786-2.695 11.789-6.94 7.216l-.131-.145c-7.124-8.184-16.738-13.65-27.6-14.868Zm-70.959-51.373c-1.408-.154-2.813-.231-4.196-.164-3.322.16-7.368 2.376-5.91 6.38 1.169 3.208 5.001 3.335 6.893 1.624.787.019 1.573.071 2.356.151 2.089.215 4.158.613 6.217 1.019 5.029.989 7.182-6.72 2.127-7.715l-2.236-.442c-.753-.147-1.514-.292-2.277-.424a3.95 3.95 0 0 0-1.47-.419l-.265-.01h-1.239Zm-39.745-62.065-.47-.063c-6.755-.864-17.598-.069-18.418 8.529-.453 4.762 6.427 5.061 7.785.989a52.11 52.11 0 0 1 14.971-.525c1.89-1.92 1.905-5.611-1.241-6.532-.444-1.194-1.371-2.217-2.627-2.398Zm154.405-14.523c-1.561-1.433-4.121-1.623-5.657 0a13.38 13.38 0 0 0-2.209 3.114l-.389.772c-.066.128-.134.255-.204.38-.131.233-.278.455-.421.681l-.096.095-.137.142c-1.439 1.521-1.622 4.168 0 5.657 1.561 1.433 4.12 1.623 5.657 0a13.418 13.418 0 0 0 2.209-3.114l.389-.77c.065-.128.133-.255.203-.381.131-.234.279-.456.421-.682l.159-.159.075-.078c1.439-1.52 1.621-4.168 0-5.657Zm-82.026-10.417c-5.636-3.994-12.338-4.18-17.519.625-3.739 3.469 1.755 9.025 5.525 5.776l.132-.119c.137-.128.276-.24.414-.347a3.847 3.847 0 0 0 2.517.942c.257.001.513 0 .769.006l.384.013.206.017.026.005.18.077c.329.148.783.377.16-.013.139.073.269.159.401.243l.23.209c1.508 1.426 4.117 1.614 5.614.037 2.651-.896 4.058-5.278.961-7.471Zm55.103-13.104.102-.033c4.942-1.411 2.841-9.132-2.127-7.715-5.271 1.505-7.788 6.41-8.842 11.434-.443 2.113.62 4.324 2.794 4.921 1.986.545 4.475-.67 4.921-2.794.313-1.493.673-2.76 1.244-3.936l.346-.672c.161-.306.218-.356.763-.833.092-.08.508-.273.799-.372ZM27.225 140.73l-.773-.176c-4.815-1.055-11.205-1.605-14.112 3.167-2.65 4.348 4.035 8.306 6.788 4.196.042-.001.09 0 .146.004l.091.01 1.234-.1c1.537-.011 3.008.261 4.499.614 5.006 1.185 7.143-6.527 2.127-7.715Zm172.836-30.754c3.645-3.645-2.01-9.304-5.656-5.656-2.883 2.883-5.664 5.786-7.538 9.449-.983 1.922-.502 4.34 1.435 5.473 1.787 1.045 4.485.495 5.473-1.435 1.624-3.175 3.674-5.217 6.286-7.831Zm-45.994-9.568c-3.601 2.132-5.932 5.644-7.347 9.709-.71 2.04.809 4.375 2.794 4.92 2.133.586 4.082-.663 4.849-2.604l.071-.19c.379-1.087.985-2.371 1.734-3.34.64-.827 1.635-1.655 2.385-1.93 1.803-.662 3.081-2.296 2.914-4.204-2.965 1.025-5.718-.208-7.4-2.361ZM46.27 83.008c-3.633-3.372-8.507-3.819-12.911-1.778-1.961.908-2.452 3.735-1.435 5.473 1.176 2.011 3.505 2.347 5.472 1.435-.505.234.407-.075.801-.188.05.024.71-.006.938-.003l.275.017c.002.002-.066 0-.202-.004a6.8 6.8 0 0 1 .569.155l.238.083c-.12-.025.42.327.57.444l.028.022c3.77 3.5 9.441-2.145 5.657-5.656Z" fill="#000"/></g></g><g transform="translate(315 248)"><path fill-rule="evenodd" clip-rule="evenodd" d="m157.853 261.089 2.133-.567c7.639-2.081 15.567-5.385 22.862-.857 2.634 1.635 3.031 5.112.949 7.362-5.909 6.384-14.631 5.146-22.622 5.21l-.393.004c-8.04.111-16.02-.29-23.977-1.443-1.049-.152-1.256-1.895-.303-2.313 6.928-3.037 14.054-5.432 21.351-7.396Zm12.961-116.722c7.551 4.59 19.057 15.293 10.934 26.673-9.562 10.033-23.33-1.471-30.114-6.674-6.291-4.032-13.359 6.338-7.522 11.047 49.023 36.295 68.918-29.846 30.521-36.443-4.227-.727-5.797 3.977-3.819 5.397Zm52.502-60.362c12.182-.373 12.193 18.98 0 18.928-3.64-.016-7.28-.017-10.92-.025 2.115 7.711.907 16.906-2.913 23.383-2.52 4.275-8.551 5.052-12.074 1.556-6.082-6.036-7.281-14.863-5.132-22.867l-.442-1.047a6.73 6.73 0 0 1-.331-1.039c-11.765.01-23.531.039-35.296.058l-17.648.018c-11.458.004-22.921.097-34.38-.01.141.213.282.425.397.668.715 1.505 1.018 3.405 1.243 5.032.384 2.792.338 5.799-.102 8.58-.321 2.032-.911 4.452-2.042 6.367l-.007.04c-.533 2.272-1.206 4.447-2.963 6.086-.528.491-1.043.841-1.587 1.089-1.027 1.075-2.349 1.786-4.086 1.809-.922.01-1.933-.259-2.913-.641-1.507.126-3.063-.556-4.396-1.16-1.069-.485-2.05-1.129-2.841-1.969a3.755 3.755 0 0 1-1.119-.464c-2.292-1.41-3.168-4.236-3.287-6.788-.008-.155-.002-.318-.007-.475a13.926 13.926 0 0 1-.219-1.044c-.762-4.535.164-9.642 1.134-14.049.244-1.103.445-2.384.744-3.623-2.287-.089-4.572-.177-6.859-.271-5.728-.234-12.719.533-18.018-1.888-.386-.175-.282-.689 0-.89 4.892-3.497 12.493-4.063 18.385-5.215l.501-.1a372.676 372.676 0 0 1 21.145-3.688c13.661-1.992 27.497-3.064 41.277-3.836 28.213-1.58 56.514-1.662 84.756-2.525Z" fill="#000"/></g><g transform="translate(279 400)"/><g transform="translate(179 343)"/><g transform="translate(203 303)"/></g></svg>